<?xml version="1.0" standalone="no"?>
<!DOCTYPE svg PUBLIC "-//W3C//DTD SVG 20010904//EN"
 "http://www.w3.org/TR/2001/REC-SVG-20010904/DTD/svg10.dtd">
<svg version="1.0" xmlns="http://www.w3.org/2000/svg"
 width="128.000000pt" height="128.000000pt" viewBox="0 0 128.000000 128.000000"
 preserveAspectRatio="xMidYMid meet">
<metadata>
Created by potrace 1.14, written by Peter Selinger 2001-2017
</metadata>
<g transform="translate(0.000000,128.000000) scale(0.100000,-0.100000)"
fill="#000000" stroke="none">
<path d="M96 1120 l-96 -160 0 -458 c0 -447 0 -459 20 -480 l21 -22 599 0
c587 0 600 0 620 20 19 19 20 33 20 480 l0 459 -96 161 -96 160 -448 0 -448 0
-96 -160z m931 61 c6 -1 28 -29 47 -63 20 -35 48 -81 61 -103 13 -22 24 -43
25 -47 0 -5 -236 -8 -525 -8 l-524 0 65 107 c35 59 68 110 73 113 7 4 730 5
778 1z m-667 -420 c5 -11 10 -35 10 -53 0 -43 39 -125 79 -164 72 -72 203 -99
294 -60 86 37 167 146 167 224 0 49 16 72 50 72 56 0 63 -69 18 -188 -26 -69
-108 -154 -185 -190 -50 -23 -70 -27 -153 -27 -82 0 -103 4 -152 27 -91 42
-179 144 -202 233 -13 52 -16 106 -6 125 14 27 65 27 80 1z"/>
</g>
</svg>
